<svg width="79" height="16" viewBox="0 0 79 16" fill="none" xmlns="http://www.w3.org/2000/svg">
<g clip-path="url(#clip0_4_994)">
<path d="M8.37162 8.64002L11.3583 10.88C11.465 10.9867 11.5894 11.0311 11.7316 11.0134C11.8738 10.9956 11.9805 10.9245 12.0516 10.8C12.1227 10.6756 12.1494 10.5511 12.1316 10.4267C12.1138 10.3022 12.0516 10.1867 11.945 10.08L9.17162 8.00002V3.73335C9.17162 3.59113 9.12718 3.47557 9.03829 3.38669C8.9494 3.2978 8.83384 3.25335 8.69162 3.25335C8.5494 3.25335 8.42495 3.2978 8.31829 3.38669C8.21162 3.47557 8.15829 3.59113 8.15829 3.73335V8.26669C8.15829 8.44446 8.2294 8.56891 8.37162 8.64002ZM8.90495 0.48002C7.73162 0.48002 6.61162 0.755575 5.54495 1.30669C4.47829 1.8578 3.5894 2.60446 2.87829 3.54669C2.16718 4.48891 1.72273 5.56446 1.54495 6.77335L1.33162 6.45335C1.26051 6.34669 1.15384 6.28446 1.01162 6.26669C0.869399 6.24891 0.744954 6.27557 0.638288 6.34669C0.531621 6.4178 0.46051 6.52446 0.424954 6.66669C0.389399 6.80891 0.424954 6.93335 0.531621 7.04002L1.49162 8.53335C1.59829 8.67557 1.72273 8.74669 1.86495 8.74669H1.91829C2.06051 8.74669 2.18495 8.69335 2.29162 8.58669L3.51829 7.36002C3.62495 7.25335 3.67829 7.12891 3.67829 6.98669C3.67829 6.84446 3.62495 6.72891 3.51829 6.64002C3.41162 6.55113 3.29607 6.50669 3.17162 6.50669C3.04718 6.50669 2.93162 6.56002 2.82495 6.66669L2.50495 6.93335C2.68273 5.79558 3.14495 4.78224 3.89162 3.89335C4.63829 3.00446 5.54495 2.34669 6.61162 1.92002C7.67829 1.49335 8.79829 1.3778 9.97162 1.57335C11.145 1.76891 12.1761 2.23113 13.065 2.96002C13.9538 3.68891 14.6027 4.59557 15.0116 5.68002C15.4205 6.76446 15.5361 7.89335 15.3583 9.06669C15.1805 10.0978 14.7894 11.0222 14.185 11.84C13.5805 12.6578 12.8161 13.3067 11.8916 13.7867C10.9672 14.2667 9.9894 14.5067 8.95829 14.5067C7.92718 14.5067 6.95829 14.2845 6.05162 13.84C5.14495 13.3956 4.40718 12.7645 3.83829 11.9467C3.76718 11.84 3.66051 11.7778 3.51829 11.76C3.37607 11.7422 3.25162 11.7689 3.14495 11.84C3.03829 11.9111 2.96718 12.0178 2.93162 12.16C2.89607 12.3022 2.93162 12.4267 3.03829 12.5334C3.71384 13.4934 4.57607 14.2311 5.62495 14.7467C6.67384 15.2622 7.76718 15.52 8.90495 15.52C10.2916 15.52 11.5538 15.1822 12.6916 14.5067C13.8294 13.8311 14.7361 12.9156 15.4116 11.76C16.0872 10.6045 16.425 9.35113 16.425 8.00002C16.425 6.64891 16.0872 5.39557 15.4116 4.24002C14.7361 3.08446 13.8294 2.16891 12.6916 1.49335C11.5538 0.817797 10.2916 0.48002 8.90495 0.48002Z" fill="#BACCE1"/>
</g>
<path d="M22.9845 13V11.7628L26.2668 8.5451C26.5807 8.2281 26.8423 7.9465 27.0516 7.70028C27.2609 7.45407 27.4178 7.21555 27.5225 6.98473C27.6271 6.75391 27.6794 6.50769 27.6794 6.24609C27.6794 5.94756 27.6117 5.69212 27.4763 5.47976C27.3409 5.26432 27.1547 5.09813 26.9177 4.98118C26.6807 4.86423 26.4114 4.80575 26.1098 4.80575C25.799 4.80575 25.5266 4.87038 25.2927 4.99964C25.0588 5.12583 24.8772 5.30587 24.748 5.53977C24.6218 5.77367 24.5587 6.0522 24.5587 6.37536H22.9291C22.9291 5.77521 23.066 5.25355 23.3399 4.81037C23.6139 4.36719 23.9909 4.02403 24.471 3.78089C24.9542 3.53776 25.5082 3.41619 26.1329 3.41619C26.7669 3.41619 27.324 3.53468 27.8041 3.77166C28.2842 4.00864 28.6566 4.33333 28.9213 4.74574C29.189 5.15814 29.3229 5.62902 29.3229 6.15838C29.3229 6.51231 29.2552 6.86009 29.1198 7.2017C28.9844 7.54332 28.7458 7.92187 28.4042 8.33736C28.0657 8.75284 27.5902 9.25604 26.9777 9.84695L25.3481 11.5043V11.5689H29.466V13H22.9845ZM35.0734 13.18C34.3132 13.18 33.6607 12.9877 33.116 12.603C32.5743 12.2152 32.1573 11.6566 31.8649 10.9272C31.5756 10.1947 31.431 9.31297 31.431 8.28196C31.434 7.25095 31.5802 6.37382 31.8695 5.65057C32.1619 4.92424 32.5789 4.37026 33.1206 3.98864C33.6653 3.60701 34.3163 3.41619 35.0734 3.41619C35.8305 3.41619 36.4814 3.60701 37.0261 3.98864C37.5709 4.37026 37.9879 4.92424 38.2772 5.65057C38.5696 6.37689 38.7158 7.25402 38.7158 8.28196C38.7158 9.31605 38.5696 10.1993 38.2772 10.9318C37.9879 11.6612 37.5709 12.2183 37.0261 12.603C36.4845 12.9877 35.8335 13.18 35.0734 13.18ZM35.0734 11.7351C35.6643 11.7351 36.1305 11.4442 36.4722 10.8626C36.8169 10.2778 36.9892 9.41761 36.9892 8.28196C36.9892 7.53101 36.9107 6.90009 36.7538 6.3892C36.5968 5.87831 36.3752 5.49361 36.089 5.23509C35.8028 4.97348 35.4642 4.84268 35.0734 4.84268C34.4855 4.84268 34.0208 5.13506 33.6792 5.71981C33.3376 6.30149 33.1652 7.15554 33.1621 8.28196C33.1591 9.03598 33.2345 9.66998 33.3884 10.1839C33.5453 10.6979 33.7669 11.0857 34.0531 11.3473C34.3393 11.6058 34.6794 11.7351 35.0734 11.7351ZM44.6065 3.54545H46.7024L49.5092 10.3963H49.62L52.4268 3.54545H54.5227V13H52.8793V6.50462H52.7915L50.1786 12.9723H48.9506L46.3377 6.49077H46.25V13H44.6065V3.54545ZM58.6205 3.54545V13H56.9078V3.54545H58.6205ZM68.7647 3.54545V13H67.2413L62.7864 6.56001H62.7079V13H60.9952V3.54545H62.5278L66.9781 9.99006H67.0612V3.54545H68.7647ZM76.289 6.14453C76.246 5.74136 76.0644 5.42744 75.7443 5.20277C75.4273 4.9781 75.0149 4.86577 74.5071 4.86577C74.1501 4.86577 73.8438 4.91963 73.5884 5.02734C73.333 5.13506 73.1375 5.28125 73.0021 5.46591C72.8667 5.65057 72.7974 5.86139 72.7944 6.09837C72.7944 6.29534 72.839 6.46615 72.9282 6.6108C73.0206 6.75544 73.1452 6.87855 73.3022 6.98011C73.4591 7.0786 73.633 7.16169 73.8238 7.2294C74.0147 7.29711 74.207 7.35405 74.4009 7.40021L75.2873 7.6218C75.6443 7.7049 75.9874 7.81723 76.3167 7.95881C76.6491 8.10038 76.9461 8.27888 77.2077 8.49432C77.4724 8.70975 77.6817 8.96982 77.8356 9.2745C77.9894 9.57919 78.0664 9.9362 78.0664 10.3455C78.0664 10.8995 77.9248 11.3873 77.6417 11.8089C77.3585 12.2275 76.9492 12.5553 76.4137 12.7923C75.8813 13.0262 75.2365 13.1431 74.4794 13.1431C73.7438 13.1431 73.1052 13.0292 72.5635 12.8015C72.025 12.5737 71.6033 12.2414 71.2986 11.8043C70.997 11.3673 70.8339 10.8349 70.8093 10.207H72.4943C72.5189 10.5363 72.6205 10.8103 72.799 11.0288C72.9775 11.2473 73.2099 11.4104 73.4961 11.5181C73.7854 11.6258 74.1085 11.6797 74.4655 11.6797C74.8379 11.6797 75.1642 11.6243 75.4442 11.5135C75.7274 11.3996 75.949 11.2427 76.109 11.0426C76.269 10.8395 76.3506 10.6025 76.3537 10.3317C76.3506 10.0855 76.2783 9.88234 76.1367 9.7223C75.9951 9.55919 75.7966 9.42377 75.5412 9.31605C75.2888 9.20526 74.9934 9.10677 74.6548 9.0206L73.5792 8.74361C72.8005 8.54356 72.185 8.24041 71.7326 7.83416C71.2832 7.42483 71.0586 6.88163 71.0586 6.20454C71.0586 5.64749 71.2094 5.15968 71.511 4.74112C71.8157 4.32256 72.2296 3.99787 72.7528 3.76704C73.276 3.53314 73.8685 3.41619 74.5302 3.41619C75.2011 3.41619 75.7889 3.53314 76.2937 3.76704C76.8015 3.99787 77.2 4.31948 77.4893 4.73189C77.7786 5.14122 77.9279 5.6121 77.9371 6.14453H76.289Z" fill="#BACCE1"/>
<defs>
<clipPath id="clip0_4_994">
<rect width="16.53" height="16" fill="white" transform="matrix(1 0 0 -1 0.160156 16)"/>
</clipPath>
</defs>
</svg>
