<svg width="25" height="24" viewBox="0 0 25 24" fill="none" xmlns="http://www.w3.org/2000/svg">
<g clip-path="url(#clip0_4_969)">
<path d="M20.6699 3.52C19.5499 2.4 18.2566 1.53333 16.7899 0.92C15.3233 0.306667 13.7899 0 12.1899 0C10.5899 0 9.05661 0.306667 7.58994 0.92C6.12327 1.53333 4.82994 2.4 3.70994 3.52C2.58994 4.64 1.72327 5.93333 1.10994 7.4C0.496608 8.86667 0.189941 10.4 0.189941 12C0.189941 13.6 0.496608 15.1333 1.10994 16.6C1.72327 18.0667 2.58994 19.36 3.70994 20.48C4.82994 21.6 6.12327 22.4667 7.58994 23.08C9.05661 23.6933 10.5899 24 12.1899 24C13.7899 24 15.3233 23.6933 16.7899 23.08C18.2566 22.4667 19.5499 21.6 20.6699 20.48C21.7899 19.36 22.6566 18.0667 23.2699 16.6C23.8833 15.1333 24.1899 13.6 24.1899 12C24.1899 10.4 23.8833 8.86667 23.2699 7.4C22.6566 5.93333 21.7899 4.64 20.6699 3.52ZM5.38994 20.16C5.54994 19.04 5.94994 18.0133 6.58994 17.08C7.22994 16.1467 8.04327 15.4133 9.02994 14.88C10.0166 14.3467 11.0699 14.08 12.1899 14.08C13.0966 14.08 13.9633 14.2533 14.7899 14.6C15.6166 14.9467 16.3499 15.44 16.9899 16.08C18.1099 17.2 18.7766 18.56 18.9899 20.16C18.0299 20.9067 16.9766 21.4933 15.8299 21.92C14.6833 22.3467 13.4699 22.56 12.1899 22.56C10.9099 22.56 9.69661 22.3467 8.54994 21.92C7.40327 21.4933 6.34994 20.9067 5.38994 20.16ZM12.1899 12.64C11.1766 12.64 10.3099 12.28 9.58994 11.56C8.86994 10.84 8.50994 9.98667 8.50994 9C8.50994 8.01333 8.86994 7.16 9.58994 6.44C10.3099 5.72 11.1766 5.36 12.1899 5.36C13.2033 5.36 14.0699 5.72 14.7899 6.44C15.5099 7.16 15.8699 8.01333 15.8699 9C15.8699 9.98667 15.5099 10.84 14.7899 11.56C14.0699 12.28 13.2033 12.64 12.1899 12.64ZM20.1899 18.96C19.8166 17.4667 19.0966 16.1867 18.0299 15.12C17.1766 14.2133 16.1633 13.5733 14.9899 13.2C15.6833 12.72 16.2299 12.1067 16.6299 11.36C17.0299 10.6133 17.2299 9.8 17.2299 8.92C17.2299 8.04 17.0033 7.21333 16.5499 6.44C16.0966 5.66667 15.4833 5.05333 14.7099 4.6C13.9366 4.14667 13.0966 3.92 12.1899 3.92C11.2833 3.92 10.4433 4.14667 9.66994 4.6C8.89661 5.05333 8.28327 5.66667 7.82994 6.44C7.37661 7.21333 7.14994 8.04 7.14994 8.92C7.14994 9.8 7.34994 10.6133 7.74994 11.36C8.14994 12.1067 8.69661 12.72 9.38994 13.2C8.32327 13.5733 7.38994 14.1333 6.58994 14.88C5.36327 16 4.56327 17.36 4.18994 18.96C3.38994 18 2.76327 16.92 2.30994 15.72C1.85661 14.52 1.62994 13.28 1.62994 12C1.62994 10.08 2.09661 8.30667 3.02994 6.68C3.96327 5.05333 5.24327 3.77333 6.86994 2.84C8.49661 1.90667 10.2699 1.44 12.1899 1.44C14.1099 1.44 15.8833 1.90667 17.5099 2.84C19.1366 3.77333 20.4166 5.05333 21.3499 6.68C22.2833 8.30667 22.7499 10.08 22.7499 12C22.7499 13.28 22.5233 14.52 22.0699 15.72C21.6166 16.92 20.9899 18 20.1899 18.96Z" fill="#90A8C5"/>
</g>
<defs>
<clipPath id="clip0_4_969">
<rect width="24" height="24" fill="white" transform="matrix(1 0 0 -1 0.189941 24)"/>
</clipPath>
</defs>
</svg>
