<svg width="35" height="28" viewBox="0 0 35 28" fill="none" xmlns="http://www.w3.org/2000/svg">
<g clip-path="url(#clip0_4_963)">
<path d="M22.7502 15.36C22.5902 15.36 22.4435 15.4134 22.3102 15.52C22.1768 15.6267 22.0835 15.76 22.0302 15.92L20.9902 23.52C20.9368 23.8934 20.7502 24.2134 20.4302 24.48C20.1102 24.7467 19.7635 24.88 19.3902 24.88H4.99016C4.61682 24.88 4.27016 24.7467 3.95016 24.48C3.63016 24.2134 3.44349 23.8934 3.39016 23.52L2.35016 15.92C2.29682 15.76 2.20349 15.6267 2.07016 15.52C1.93682 15.4134 1.79016 15.3734 1.63016 15.4C1.47016 15.4267 1.33682 15.5067 1.23016 15.64C1.12349 15.7734 1.09682 15.92 1.15016 16.08L2.19016 23.68C2.29682 24.3734 2.61682 24.9467 3.15016 25.4C3.68349 25.8534 4.29682 26.08 4.99016 26.08H19.3902C20.0835 26.08 20.6968 25.8534 21.2302 25.4C21.7635 24.9467 22.0835 24.3734 22.1902 23.68L23.2302 16.08C23.2835 15.92 23.2568 15.7734 23.1502 15.64C23.0435 15.5067 22.9102 15.44 22.7502 15.44V15.36ZM23.3902 12.96H19.3902L14.6702 6.24002C14.5102 6.02668 14.3235 5.93335 14.1102 5.96002C13.8968 5.98668 13.7235 6.09335 13.5902 6.28002C13.4568 6.46668 13.4702 6.66669 13.6302 6.88002L17.8702 12.96H6.51016L10.7502 6.88002C10.8568 6.66669 10.8568 6.46668 10.7502 6.28002C10.6435 6.09335 10.4835 5.98668 10.2702 5.96002C10.0568 5.93335 9.87016 6.02668 9.71016 6.24002L4.99016 12.96H0.990156C0.72349 12.96 0.550156 13.0534 0.470156 13.24C0.390156 13.4267 0.390156 13.6267 0.470156 13.84C0.550156 14.0534 0.72349 14.16 0.990156 14.16H23.3902C23.6568 14.16 23.8302 14.0534 23.9102 13.84C23.9902 13.6267 23.9902 13.4267 23.9102 13.24C23.8302 13.0534 23.6568 12.96 23.3902 12.96ZM8.19016 22.56C8.40349 22.56 8.56349 22.4934 8.67016 22.36C8.77682 22.2267 8.83016 22.0534 8.83016 21.84L8.03016 17.68C7.97682 17.4134 7.84349 17.2534 7.63016 17.2C7.41682 17.1467 7.23016 17.1867 7.07016 17.32C6.91016 17.4534 6.85682 17.6267 6.91016 17.84L7.63016 22.08C7.63016 22.1867 7.69682 22.2934 7.83016 22.4C7.96349 22.5067 8.08349 22.56 8.19016 22.56ZM16.7502 22.08L17.4702 17.84C17.5235 17.6267 17.4702 17.4534 17.3102 17.32C17.1502 17.1867 16.9635 17.1467 16.7502 17.2C16.5368 17.2534 16.4035 17.4134 16.3502 17.68L15.5502 21.84C15.5502 22.1067 15.6302 22.3067 15.7902 22.44C15.9502 22.5734 16.1368 22.6 16.3502 22.52C16.5635 22.44 16.6968 22.2934 16.7502 22.08ZM12.8302 21.92V17.76C12.7768 17.4934 12.6568 17.32 12.4702 17.24C12.2835 17.16 12.0968 17.16 11.9102 17.24C11.7235 17.32 11.6035 17.4934 11.5502 17.76V21.92C11.6035 22.1867 11.7235 22.3734 11.9102 22.48C12.0968 22.5867 12.2835 22.5867 12.4702 22.48C12.6568 22.3734 12.7768 22.1867 12.8302 21.92Z" fill="#90A8C5"/>
</g>
<rect x="16.1899" width="18" height="18" rx="9" fill="#F4796C"/>
<path d="M25.188 13.1523C24.5448 13.1523 23.9927 12.9896 23.5317 12.6641C23.0734 12.3359 22.7205 11.8633 22.4731 11.2461C22.2284 10.6263 22.106 9.88021 22.106 9.00781C22.1086 8.13542 22.2323 7.39323 22.4771 6.78125C22.7244 6.16667 23.0773 5.69792 23.5356 5.375C23.9966 5.05208 24.5474 4.89062 25.188 4.89062C25.8286 4.89062 26.3794 5.05208 26.8403 5.375C27.3013 5.69792 27.6541 6.16667 27.8989 6.78125C28.1463 7.39583 28.27 8.13802 28.27 9.00781C28.27 9.88281 28.1463 10.6302 27.8989 11.25C27.6541 11.8672 27.3013 12.3385 26.8403 12.6641C26.382 12.9896 25.8312 13.1523 25.188 13.1523ZM25.188 11.9297C25.688 11.9297 26.0825 11.6836 26.3716 11.1914C26.6632 10.6966 26.8091 9.96875 26.8091 9.00781C26.8091 8.3724 26.7427 7.83854 26.6099 7.40625C26.4771 6.97396 26.2896 6.64844 26.0474 6.42969C25.8052 6.20833 25.5187 6.09766 25.188 6.09766C24.6906 6.09766 24.2974 6.34505 24.0083 6.83984C23.7192 7.33203 23.5734 8.05469 23.5708 9.00781C23.5682 9.64583 23.632 10.1823 23.7622 10.6172C23.895 11.0521 24.0825 11.3802 24.3247 11.6016C24.5669 11.8203 24.8547 11.9297 25.188 11.9297Z" fill="white"/>
<a href="https://www.figma.com/design/GbVhwgDrxqkzjCJgiIpkUW/75---News-Magizine--WebsiteTemplates--Community-?node-id=4-913">
<rect fill="black" fill-opacity="0" y="0.34375" width="7.33594" height="13.3125"/>
</a>
<defs>
<clipPath id="clip0_4_963">
<rect width="24" height="24" fill="white" transform="matrix(1 0 0 -1 0.189941 28)"/>
</clipPath>
</defs>
</svg>
