<svg width="187" height="41" viewBox="0 0 187 41" fill="none" xmlns="http://www.w3.org/2000/svg">
<path d="M7.70859 3.15066C8.09278 1.45872 9.27145 0.300049 10.6084 0.300049H182.908C184.936 0.300049 186.391 2.88299 185.808 5.44944L178.542 37.4494C178.158 39.1413 176.979 40.3 175.642 40.3H3.34245C1.31446 40.3 -0.140086 37.7172 0.442653 35.1507L7.70859 3.15066Z" fill="#F4796C"/>
<path d="M29.4303 27.8V13.4H35.5103C35.6503 13.4 35.8369 13.4067 36.0703 13.42C36.3103 13.4267 36.5236 13.4467 36.7103 13.48C37.5703 13.6134 38.2736 13.8967 38.8203 14.33C39.3736 14.7634 39.7803 15.31 40.0403 15.97C40.3003 16.6234 40.4303 17.3534 40.4303 18.16C40.4303 19.3667 40.1303 20.4 39.5303 21.26C38.9303 22.1134 37.9903 22.64 36.7103 22.84L35.5103 22.92H32.1503V27.8H29.4303ZM37.5503 27.8L34.7103 21.94L37.5103 21.4L40.6303 27.8H37.5503ZM32.1503 20.38H35.3903C35.5303 20.38 35.6836 20.3734 35.8503 20.36C36.0169 20.3467 36.1703 20.32 36.3103 20.28C36.6769 20.18 36.9603 20.0134 37.1603 19.78C37.3603 19.54 37.4969 19.2767 37.5703 18.99C37.6503 18.6967 37.6903 18.42 37.6903 18.16C37.6903 17.9 37.6503 17.6267 37.5703 17.34C37.4969 17.0467 37.3603 16.7834 37.1603 16.55C36.9603 16.31 36.6769 16.14 36.3103 16.04C36.1703 16 36.0169 15.9734 35.8503 15.96C35.6836 15.9467 35.5303 15.94 35.3903 15.94H32.1503V20.38ZM47.8487 28.1C46.742 28.1 45.7654 27.8634 44.9187 27.39C44.0787 26.91 43.4187 26.2534 42.9387 25.42C42.4654 24.58 42.2287 23.62 42.2287 22.54C42.2287 21.36 42.462 20.3334 42.9287 19.46C43.3954 18.5867 44.0387 17.91 44.8587 17.43C45.6787 16.9434 46.622 16.7 47.6887 16.7C48.822 16.7 49.7854 16.9667 50.5787 17.5C51.372 18.0334 51.9587 18.7834 52.3387 19.75C52.7187 20.7167 52.852 21.8534 52.7387 23.16H50.0487V22.16C50.0487 21.06 49.872 20.27 49.5187 19.79C49.172 19.3034 48.602 19.06 47.8087 19.06C46.882 19.06 46.1987 19.3434 45.7587 19.91C45.3254 20.47 45.1087 21.3 45.1087 22.4C45.1087 23.4067 45.3254 24.1867 45.7587 24.74C46.1987 25.2867 46.842 25.56 47.6887 25.56C48.222 25.56 48.6787 25.4434 49.0587 25.21C49.4387 24.9767 49.7287 24.64 49.9287 24.2L52.6487 24.98C52.242 25.9667 51.5987 26.7334 50.7187 27.28C49.8454 27.8267 48.8887 28.1 47.8487 28.1ZM44.2687 23.16V21.14H51.4287V23.16H44.2687ZM59.7567 28.1C58.6367 28.1 57.6767 27.85 56.8767 27.35C56.0767 26.85 55.4633 26.17 55.0367 25.31C54.61 24.45 54.3967 23.48 54.3967 22.4C54.3967 21.3067 54.6167 20.33 55.0567 19.47C55.5033 18.61 56.13 17.9334 56.9367 17.44C57.7433 16.9467 58.6967 16.7 59.7967 16.7C61.07 16.7 62.1367 17.0234 62.9967 17.67C63.8633 18.31 64.4167 19.1867 64.6567 20.3L61.9367 21.02C61.7767 20.46 61.4967 20.0234 61.0967 19.71C60.7033 19.3967 60.2567 19.24 59.7567 19.24C59.1833 19.24 58.7133 19.38 58.3467 19.66C57.98 19.9334 57.71 20.31 57.5367 20.79C57.3633 21.2634 57.2767 21.8 57.2767 22.4C57.2767 23.34 57.4833 24.1034 57.8967 24.69C58.3167 25.27 58.9367 25.56 59.7567 25.56C60.37 25.56 60.8367 25.42 61.1567 25.14C61.4767 24.86 61.7167 24.46 61.8767 23.94L64.6567 24.52C64.35 25.6667 63.77 26.55 62.9167 27.17C62.0633 27.79 61.01 28.1 59.7567 28.1ZM71.3839 28.1C70.2772 28.1 69.3005 27.8634 68.4539 27.39C67.6139 26.91 66.9539 26.2534 66.4739 25.42C66.0005 24.58 65.7639 23.62 65.7639 22.54C65.7639 21.36 65.9972 20.3334 66.4639 19.46C66.9305 18.5867 67.5739 17.91 68.3939 17.43C69.2139 16.9434 70.1572 16.7 71.2239 16.7C72.3572 16.7 73.3205 16.9667 74.1139 17.5C74.9072 18.0334 75.4939 18.7834 75.8739 19.75C76.2539 20.7167 76.3872 21.8534 76.2739 23.16H73.5839V22.16C73.5839 21.06 73.4072 20.27 73.0539 19.79C72.7072 19.3034 72.1372 19.06 71.3439 19.06C70.4172 19.06 69.7339 19.3434 69.2939 19.91C68.8605 20.47 68.6439 21.3 68.6439 22.4C68.6439 23.4067 68.8605 24.1867 69.2939 24.74C69.7339 25.2867 70.3772 25.56 71.2239 25.56C71.7572 25.56 72.2139 25.4434 72.5939 25.21C72.9739 24.9767 73.2639 24.64 73.4639 24.2L76.1839 24.98C75.7772 25.9667 75.1339 26.7334 74.2539 27.28C73.3805 27.8267 72.4239 28.1 71.3839 28.1ZM67.8039 23.16V21.14H74.9639V23.16H67.8039ZM85.5989 27.8V22.7C85.5989 22.4534 85.5855 22.14 85.5589 21.76C85.5322 21.3734 85.4489 20.9867 85.3089 20.6C85.1689 20.2134 84.9389 19.89 84.6189 19.63C84.3055 19.37 83.8589 19.24 83.2789 19.24C83.0455 19.24 82.7955 19.2767 82.5289 19.35C82.2622 19.4234 82.0122 19.5667 81.7789 19.78C81.5455 19.9867 81.3522 20.2934 81.1989 20.7C81.0522 21.1067 80.9789 21.6467 80.9789 22.32L79.4189 21.58C79.4189 20.7267 79.5922 19.9267 79.9389 19.18C80.2855 18.4334 80.8055 17.83 81.4989 17.37C82.1989 16.91 83.0789 16.68 84.1389 16.68C84.9855 16.68 85.6755 16.8234 86.2089 17.11C86.7422 17.3967 87.1555 17.76 87.4489 18.2C87.7489 18.64 87.9622 19.1 88.0889 19.58C88.2155 20.0534 88.2922 20.4867 88.3189 20.88C88.3455 21.2734 88.3589 21.56 88.3589 21.74V27.8H85.5989ZM78.2189 27.8V17H80.6389V20.58H80.9789V27.8H78.2189ZM97.4337 27.8C96.687 27.94 95.9537 28 95.2337 27.98C94.5204 27.9667 93.8804 27.8434 93.3137 27.61C92.7537 27.37 92.327 26.9867 92.0337 26.46C91.767 25.9667 91.627 25.4667 91.6137 24.96C91.6004 24.4467 91.5937 23.8667 91.5937 23.22V14H94.3137V23.06C94.3137 23.48 94.317 23.86 94.3237 24.2C94.337 24.5334 94.407 24.8 94.5337 25C94.7737 25.38 95.157 25.5867 95.6837 25.62C96.2104 25.6534 96.7937 25.6267 97.4337 25.54V27.8ZM89.7537 19.1V17H97.4337V19.1H89.7537ZM103.844 27.8V13.4H109.924C110.064 13.4 110.251 13.4067 110.484 13.42C110.724 13.4267 110.938 13.4467 111.124 13.48C111.984 13.6134 112.688 13.8967 113.234 14.33C113.788 14.7634 114.194 15.31 114.454 15.97C114.714 16.6234 114.844 17.3534 114.844 18.16C114.844 18.9667 114.711 19.7 114.444 20.36C114.184 21.0134 113.778 21.5567 113.224 21.99C112.678 22.4234 111.978 22.7067 111.124 22.84C110.938 22.8667 110.724 22.8867 110.484 22.9C110.244 22.9134 110.058 22.92 109.924 22.92H106.564V27.8H103.844ZM106.564 20.38H109.804C109.944 20.38 110.098 20.3734 110.264 20.36C110.431 20.3467 110.584 20.32 110.724 20.28C111.091 20.18 111.374 20.0134 111.574 19.78C111.774 19.54 111.911 19.2767 111.984 18.99C112.064 18.6967 112.104 18.42 112.104 18.16C112.104 17.9 112.064 17.6267 111.984 17.34C111.911 17.0467 111.774 16.7834 111.574 16.55C111.374 16.31 111.091 16.14 110.724 16.04C110.584 16 110.431 15.9734 110.264 15.96C110.098 15.9467 109.944 15.94 109.804 15.94H106.564V20.38ZM121.517 28.1C120.43 28.1 119.477 27.8567 118.657 27.37C117.837 26.8834 117.197 26.2134 116.737 25.36C116.284 24.5 116.057 23.5134 116.057 22.4C116.057 21.2734 116.29 20.2834 116.757 19.43C117.224 18.57 117.867 17.9 118.687 17.42C119.507 16.94 120.45 16.7 121.517 16.7C122.604 16.7 123.557 16.9434 124.377 17.43C125.204 17.9167 125.847 18.59 126.307 19.45C126.767 20.3034 126.997 21.2867 126.997 22.4C126.997 23.52 126.764 24.51 126.297 25.37C125.837 26.2234 125.194 26.8934 124.367 27.38C123.547 27.86 122.597 28.1 121.517 28.1ZM121.517 25.56C122.39 25.56 123.04 25.2667 123.467 24.68C123.9 24.0867 124.117 23.3267 124.117 22.4C124.117 21.44 123.897 20.6734 123.457 20.1C123.024 19.5267 122.377 19.24 121.517 19.24C120.924 19.24 120.437 19.3734 120.057 19.64C119.677 19.9067 119.394 20.2767 119.207 20.75C119.027 21.2234 118.937 21.7734 118.937 22.4C118.937 23.3667 119.154 24.1367 119.587 24.71C120.027 25.2767 120.67 25.56 121.517 25.56ZM133.123 28.1C131.763 28.1 130.663 27.7934 129.823 27.18C128.99 26.56 128.483 25.6867 128.303 24.56L131.083 24.14C131.196 24.6467 131.446 25.0434 131.833 25.33C132.226 25.6167 132.723 25.76 133.323 25.76C133.816 25.76 134.196 25.6667 134.463 25.48C134.73 25.2867 134.863 25.02 134.863 24.68C134.863 24.4667 134.81 24.2967 134.703 24.17C134.596 24.0367 134.356 23.9067 133.983 23.78C133.616 23.6534 133.043 23.4867 132.263 23.28C131.383 23.0534 130.68 22.8 130.153 22.52C129.626 22.24 129.246 21.9067 129.013 21.52C128.78 21.1267 128.663 20.6534 128.663 20.1C128.663 19.4067 128.84 18.8067 129.193 18.3C129.546 17.7867 130.043 17.3934 130.683 17.12C131.33 16.84 132.09 16.7 132.963 16.7C133.81 16.7 134.56 16.83 135.213 17.09C135.866 17.35 136.393 17.72 136.793 18.2C137.2 18.68 137.45 19.2467 137.543 19.9L134.763 20.4C134.716 20 134.543 19.6834 134.243 19.45C133.943 19.2167 133.536 19.08 133.023 19.04C132.523 19.0067 132.12 19.0734 131.813 19.24C131.513 19.4067 131.363 19.6467 131.363 19.96C131.363 20.1467 131.426 20.3034 131.553 20.43C131.686 20.5567 131.956 20.6867 132.363 20.82C132.776 20.9534 133.403 21.1267 134.243 21.34C135.063 21.5534 135.72 21.8034 136.213 22.09C136.713 22.37 137.076 22.71 137.303 23.11C137.53 23.5034 137.643 23.98 137.643 24.54C137.643 25.6467 137.243 26.5167 136.443 27.15C135.643 27.7834 134.536 28.1 133.123 28.1ZM146.32 27.8C145.574 27.94 144.84 28 144.12 27.98C143.407 27.9667 142.767 27.8434 142.2 27.61C141.64 27.37 141.214 26.9867 140.92 26.46C140.654 25.9667 140.514 25.4667 140.5 24.96C140.487 24.4467 140.48 23.8667 140.48 23.22V14H143.2V23.06C143.2 23.48 143.204 23.86 143.21 24.2C143.224 24.5334 143.294 24.8 143.42 25C143.66 25.38 144.044 25.5867 144.57 25.62C145.097 25.6534 145.68 25.6267 146.32 25.54V27.8ZM138.64 19.1V17H146.32V19.1H138.64ZM152.947 28.1C151.587 28.1 150.487 27.7934 149.647 27.18C148.814 26.56 148.307 25.6867 148.127 24.56L150.907 24.14C151.02 24.6467 151.27 25.0434 151.657 25.33C152.05 25.6167 152.547 25.76 153.147 25.76C153.64 25.76 154.02 25.6667 154.287 25.48C154.554 25.2867 154.687 25.02 154.687 24.68C154.687 24.4667 154.634 24.2967 154.527 24.17C154.42 24.0367 154.18 23.9067 153.807 23.78C153.44 23.6534 152.867 23.4867 152.087 23.28C151.207 23.0534 150.504 22.8 149.977 22.52C149.45 22.24 149.07 21.9067 148.837 21.52C148.604 21.1267 148.487 20.6534 148.487 20.1C148.487 19.4067 148.664 18.8067 149.017 18.3C149.37 17.7867 149.867 17.3934 150.507 17.12C151.154 16.84 151.914 16.7 152.787 16.7C153.634 16.7 154.384 16.83 155.037 17.09C155.69 17.35 156.217 17.72 156.617 18.2C157.024 18.68 157.274 19.2467 157.367 19.9L154.587 20.4C154.54 20 154.367 19.6834 154.067 19.45C153.767 19.2167 153.36 19.08 152.847 19.04C152.347 19.0067 151.944 19.0734 151.637 19.24C151.337 19.4067 151.187 19.6467 151.187 19.96C151.187 20.1467 151.25 20.3034 151.377 20.43C151.51 20.5567 151.78 20.6867 152.187 20.82C152.6 20.9534 153.227 21.1267 154.067 21.34C154.887 21.5534 155.544 21.8034 156.037 22.09C156.537 22.37 156.9 22.71 157.127 23.11C157.354 23.5034 157.467 23.98 157.467 24.54C157.467 25.6467 157.067 26.5167 156.267 27.15C155.467 27.7834 154.36 28.1 152.947 28.1Z" fill="white"/>
</svg>
