<svg width="149" height="40" viewBox="0 0 149 40" fill="none" xmlns="http://www.w3.org/2000/svg">
<path d="M6.15677 2.85061C6.46331 1.15867 7.40377 0 8.4705 0H145.948C147.565 0 148.726 2.58294 148.261 5.14939L142.464 37.1494C142.158 38.8413 141.217 40 140.15 40H2.67305C1.05493 40 -0.105647 37.4171 0.359318 34.8506L6.15677 2.85061Z" fill="#F4796C"/>
<path d="M29.4303 27.5V13.1H38.2303V15.82H32.1503V18.94H37.0303V21.66H32.1503V27.5H29.4303ZM44.6028 27.8C43.5161 27.8 42.5628 27.5567 41.7428 27.07C40.9228 26.5833 40.2828 25.9133 39.8228 25.06C39.3694 24.2 39.1428 23.2133 39.1428 22.1C39.1428 20.9733 39.3761 19.9833 39.8428 19.13C40.3094 18.27 40.9528 17.6 41.7728 17.12C42.5928 16.64 43.5361 16.4 44.6028 16.4C45.6894 16.4 46.6428 16.6433 47.4628 17.13C48.2894 17.6167 48.9328 18.29 49.3928 19.15C49.8528 20.0033 50.0828 20.9867 50.0828 22.1C50.0828 23.22 49.8494 24.21 49.3828 25.07C48.9228 25.9233 48.2794 26.5933 47.4528 27.08C46.6328 27.56 45.6828 27.8 44.6028 27.8ZM44.6028 25.26C45.4761 25.26 46.1261 24.9667 46.5528 24.38C46.9861 23.7867 47.2028 23.0267 47.2028 22.1C47.2028 21.14 46.9828 20.3733 46.5428 19.8C46.1094 19.2267 45.4628 18.94 44.6028 18.94C44.0094 18.94 43.5228 19.0733 43.1428 19.34C42.7628 19.6067 42.4794 19.9767 42.2928 20.45C42.1128 20.9233 42.0228 21.4733 42.0228 22.1C42.0228 23.0667 42.2394 23.8367 42.6728 24.41C43.1128 24.9767 43.7561 25.26 44.6028 25.26ZM52.4818 27.5V12.8H55.2018V27.5H52.4818ZM58.3998 27.5V12.8H61.1198V27.5H58.3998ZM68.9778 27.8C67.8911 27.8 66.9378 27.5567 66.1178 27.07C65.2978 26.5833 64.6578 25.9133 64.1978 25.06C63.7444 24.2 63.5178 23.2133 63.5178 22.1C63.5178 20.9733 63.7511 19.9833 64.2178 19.13C64.6844 18.27 65.3278 17.6 66.1478 17.12C66.9678 16.64 67.9111 16.4 68.9778 16.4C70.0644 16.4 71.0178 16.6433 71.8378 17.13C72.6644 17.6167 73.3078 18.29 73.7678 19.15C74.2278 20.0033 74.4578 20.9867 74.4578 22.1C74.4578 23.22 74.2244 24.21 73.7578 25.07C73.2978 25.9233 72.6544 26.5933 71.8278 27.08C71.0078 27.56 70.0578 27.8 68.9778 27.8ZM68.9778 25.26C69.8511 25.26 70.5011 24.9667 70.9278 24.38C71.3611 23.7867 71.5778 23.0267 71.5778 22.1C71.5778 21.14 71.3578 20.3733 70.9178 19.8C70.4844 19.2267 69.8378 18.94 68.9778 18.94C68.3844 18.94 67.8978 19.0733 67.5178 19.34C67.1378 19.6067 66.8544 19.9767 66.6678 20.45C66.4878 20.9233 66.3978 21.4733 66.3978 22.1C66.3978 23.0667 66.6144 23.8367 67.0478 24.41C67.4878 24.9767 68.1311 25.26 68.9778 25.26ZM78.5662 27.5L75.2662 16.68L77.9262 16.7L79.8862 23.14L81.8762 16.7H84.1362L86.1262 23.14L88.0862 16.7H90.7462L87.4462 27.5H85.3662L83.0062 20.46L80.6462 27.5H78.5662ZM102.419 27.8C101.259 27.8 100.239 27.5667 99.3592 27.1C98.4792 26.6267 97.7925 25.9633 97.2992 25.11C96.8058 24.2567 96.5592 23.2533 96.5592 22.1V13.12L99.3192 13.1V22.08C99.3192 22.5533 99.3992 22.9833 99.5592 23.37C99.7192 23.7567 99.9392 24.09 100.219 24.37C100.506 24.65 100.836 24.8667 101.209 25.02C101.589 25.1667 101.993 25.24 102.419 25.24C102.859 25.24 103.266 25.1633 103.639 25.01C104.019 24.8567 104.349 24.64 104.629 24.36C104.909 24.08 105.126 23.7467 105.279 23.36C105.439 22.9733 105.519 22.5467 105.519 22.08V13.1H108.279V22.1C108.279 23.2533 108.033 24.2567 107.539 25.11C107.046 25.9633 106.359 26.6267 105.479 27.1C104.599 27.5667 103.579 27.8 102.419 27.8ZM115.291 27.8C113.931 27.8 112.831 27.4933 111.991 26.88C111.158 26.26 110.651 25.3867 110.471 24.26L113.251 23.84C113.364 24.3467 113.614 24.7433 114.001 25.03C114.394 25.3167 114.891 25.46 115.491 25.46C115.984 25.46 116.364 25.3667 116.631 25.18C116.898 24.9867 117.031 24.72 117.031 24.38C117.031 24.1667 116.978 23.9967 116.871 23.87C116.764 23.7367 116.524 23.6067 116.151 23.48C115.784 23.3533 115.211 23.1867 114.431 22.98C113.551 22.7533 112.848 22.5 112.321 22.22C111.794 21.94 111.414 21.6067 111.181 21.22C110.948 20.8267 110.831 20.3533 110.831 19.8C110.831 19.1067 111.008 18.5067 111.361 18C111.714 17.4867 112.211 17.0933 112.851 16.82C113.498 16.54 114.258 16.4 115.131 16.4C115.978 16.4 116.728 16.53 117.381 16.79C118.034 17.05 118.561 17.42 118.961 17.9C119.368 18.38 119.618 18.9467 119.711 19.6L116.931 20.1C116.884 19.7 116.711 19.3833 116.411 19.15C116.111 18.9167 115.704 18.78 115.191 18.74C114.691 18.7067 114.288 18.7733 113.981 18.94C113.681 19.1067 113.531 19.3467 113.531 19.66C113.531 19.8467 113.594 20.0033 113.721 20.13C113.854 20.2567 114.124 20.3867 114.531 20.52C114.944 20.6533 115.571 20.8267 116.411 21.04C117.231 21.2533 117.888 21.5033 118.381 21.79C118.881 22.07 119.244 22.41 119.471 22.81C119.698 23.2033 119.811 23.68 119.811 24.24C119.811 25.3467 119.411 26.2167 118.611 26.85C117.811 27.4833 116.704 27.8 115.291 27.8Z" fill="white"/>
</svg>
