<svg width="230" height="41" viewBox="0 0 230 41" fill="none" xmlns="http://www.w3.org/2000/svg">
<path d="M9.4701 3.01052C9.94394 1.31858 11.3977 0.159912 13.0466 0.159912H225.555C228.056 0.159912 229.85 2.74285 229.131 5.3093L220.17 37.3093C219.696 39.0012 218.242 40.1599 216.593 40.1599H4.08506C1.58381 40.1599 -0.210173 37.577 0.508557 35.0105L9.4701 3.01052Z" fill="#F4796C"/>
<path d="M35.58 27.9599C34.14 27.9599 32.8967 27.6466 31.85 27.0199C30.81 26.3932 30.0067 25.5166 29.44 24.3899C28.88 23.2632 28.6 21.9532 28.6 20.4599C28.6 18.9666 28.88 17.6566 29.44 16.5299C30.0067 15.4032 30.81 14.5266 31.85 13.8999C32.8967 13.2732 34.14 12.9599 35.58 12.9599C37.02 12.9599 38.26 13.2732 39.3 13.8999C40.3467 14.5266 41.15 15.4032 41.71 16.5299C42.2767 17.6566 42.56 18.9666 42.56 20.4599C42.56 21.9532 42.2767 23.2632 41.71 24.3899C41.15 25.5166 40.3467 26.3932 39.3 27.0199C38.26 27.6466 37.02 27.9599 35.58 27.9599ZM35.58 25.3999C36.4933 25.4132 37.2533 25.2166 37.86 24.8099C38.4667 24.4032 38.92 23.8266 39.22 23.0799C39.5267 22.3332 39.68 21.4599 39.68 20.4599C39.68 19.4599 39.5267 18.5932 39.22 17.8599C38.92 17.1266 38.4667 16.5566 37.86 16.1499C37.2533 15.7432 36.4933 15.5332 35.58 15.5199C34.6667 15.5066 33.9067 15.7032 33.3 16.1099C32.6933 16.5166 32.2367 17.0932 31.93 17.8399C31.63 18.5866 31.48 19.4599 31.48 20.4599C31.48 21.4599 31.63 22.3266 31.93 23.0599C32.2367 23.7932 32.6933 24.3632 33.3 24.7699C33.9067 25.1766 34.6667 25.3866 35.58 25.3999ZM48.5763 27.9799C47.7296 27.9799 47.0396 27.8366 46.5063 27.5499C45.9729 27.2632 45.5563 26.8999 45.2563 26.4599C44.9629 26.0199 44.7529 25.5632 44.6262 25.0899C44.4996 24.6099 44.4229 24.1732 44.3963 23.7799C44.3696 23.3866 44.3563 23.0999 44.3563 22.9199V16.8599H47.1163V21.9599C47.1163 22.2066 47.1296 22.5232 47.1563 22.9099C47.1829 23.2899 47.2663 23.6732 47.4063 24.0599C47.5463 24.4466 47.7729 24.7699 48.0863 25.0299C48.4063 25.2899 48.8563 25.4199 49.4363 25.4199C49.6696 25.4199 49.9196 25.3832 50.1863 25.3099C50.4529 25.2366 50.7029 25.0966 50.9363 24.8899C51.1696 24.6766 51.3596 24.3666 51.5063 23.9599C51.6596 23.5466 51.7363 23.0066 51.7363 22.3399L53.2963 23.0799C53.2963 23.9332 53.1229 24.7332 52.7763 25.4799C52.4296 26.2266 51.9063 26.8299 51.2063 27.2899C50.5129 27.7499 49.6363 27.9799 48.5763 27.9799ZM52.0763 27.6599V24.0799H51.7363V16.8599H54.4763V27.6599H52.0763ZM57.2711 27.6599V16.8599H59.6711V19.4999L59.4111 19.1599C59.5511 18.7866 59.7378 18.4466 59.9711 18.1399C60.2044 17.8332 60.4911 17.5799 60.8311 17.3799C61.0911 17.2199 61.3744 17.0966 61.6811 17.0099C61.9878 16.9166 62.3044 16.8599 62.6311 16.8399C62.9578 16.8132 63.2844 16.8199 63.6111 16.8599V19.3999C63.3111 19.3066 62.9611 19.2766 62.5611 19.3099C62.1678 19.3366 61.8111 19.4266 61.4911 19.5799C61.1711 19.7266 60.9011 19.9232 60.6811 20.1699C60.4611 20.4099 60.2944 20.6966 60.1811 21.0299C60.0678 21.3566 60.0111 21.7266 60.0111 22.1399V27.6599H57.2711ZM69.5172 27.6599V13.2599H75.5972C75.7372 13.2599 75.9239 13.2666 76.1572 13.2799C76.3972 13.2866 76.6105 13.3066 76.7972 13.3399C77.6572 13.4732 78.3605 13.7566 78.9072 14.1899C79.4605 14.6232 79.8672 15.1699 80.1272 15.8299C80.3872 16.4832 80.5172 17.2132 80.5172 18.0199C80.5172 18.8266 80.3839 19.5599 80.1172 20.2199C79.8572 20.8732 79.4505 21.4166 78.8972 21.8499C78.3505 22.2832 77.6505 22.5666 76.7972 22.6999C76.6105 22.7266 76.3972 22.7466 76.1572 22.7599C75.9172 22.7732 75.7305 22.7799 75.5972 22.7799H72.2372V27.6599H69.5172ZM72.2372 20.2399H75.4772C75.6172 20.2399 75.7705 20.2332 75.9372 20.2199C76.1039 20.2066 76.2572 20.1799 76.3972 20.1399C76.7639 20.0399 77.0472 19.8732 77.2472 19.6399C77.4472 19.3999 77.5839 19.1366 77.6572 18.8499C77.7372 18.5566 77.7772 18.2799 77.7772 18.0199C77.7772 17.7599 77.7372 17.4866 77.6572 17.1999C77.5839 16.9066 77.4472 16.6432 77.2472 16.4099C77.0472 16.1699 76.7639 15.9999 76.3972 15.8999C76.2572 15.8599 76.1039 15.8332 75.9372 15.8199C75.7705 15.8066 75.6172 15.7999 75.4772 15.7999H72.2372V20.2399ZM87.1897 27.9599C86.103 27.9599 85.1497 27.7166 84.3297 27.2299C83.5097 26.7432 82.8697 26.0732 82.4097 25.2199C81.9564 24.3599 81.7297 23.3732 81.7297 22.2599C81.7297 21.1332 81.963 20.1432 82.4297 19.2899C82.8964 18.4299 83.5397 17.7599 84.3597 17.2799C85.1797 16.7999 86.123 16.5599 87.1897 16.5599C88.2764 16.5599 89.2297 16.8032 90.0497 17.2899C90.8764 17.7766 91.5197 18.4499 91.9797 19.3099C92.4397 20.1632 92.6697 21.1466 92.6697 22.2599C92.6697 23.3799 92.4364 24.3699 91.9697 25.2299C91.5097 26.0832 90.8664 26.7532 90.0397 27.2399C89.2197 27.7199 88.2697 27.9599 87.1897 27.9599ZM87.1897 25.4199C88.063 25.4199 88.713 25.1266 89.1397 24.5399C89.573 23.9466 89.7897 23.1866 89.7897 22.2599C89.7897 21.2999 89.5697 20.5332 89.1297 19.9599C88.6964 19.3866 88.0497 19.0999 87.1897 19.0999C86.5964 19.0999 86.1097 19.2332 85.7297 19.4999C85.3497 19.7666 85.0664 20.1366 84.8797 20.6099C84.6997 21.0832 84.6097 21.6332 84.6097 22.2599C84.6097 23.2266 84.8264 23.9966 85.2597 24.5699C85.6997 25.1366 86.343 25.4199 87.1897 25.4199ZM100.169 27.9599C99.0954 27.9599 98.1988 27.7099 97.4788 27.2099C96.7588 26.7099 96.2154 26.0299 95.8488 25.1699C95.4888 24.3099 95.3088 23.3399 95.3088 22.2599C95.3088 21.1799 95.4888 20.2099 95.8488 19.3499C96.2088 18.4899 96.7388 17.8099 97.4388 17.3099C98.1388 16.8099 99.0021 16.5599 100.029 16.5599C101.062 16.5599 101.962 16.8066 102.729 17.2999C103.495 17.7932 104.089 18.4699 104.509 19.3299C104.935 20.1832 105.149 21.1599 105.149 22.2599C105.149 23.3399 104.939 24.3099 104.519 25.1699C104.105 26.0299 103.525 26.7099 102.779 27.2099C102.032 27.7099 101.162 27.9599 100.169 27.9599ZM94.8488 32.4599V16.8599H97.2488V24.2599H97.5888V32.4599H94.8488ZM99.7288 25.5399C100.315 25.5399 100.795 25.3932 101.169 25.0999C101.542 24.8066 101.819 24.4132 101.999 23.9199C102.179 23.4199 102.269 22.8666 102.269 22.2599C102.269 21.6599 102.175 21.1132 101.989 20.6199C101.802 20.1199 101.512 19.7232 101.119 19.4299C100.732 19.1299 100.235 18.9799 99.6288 18.9799C99.0621 18.9799 98.6021 19.1166 98.2488 19.3899C97.9021 19.6632 97.6488 20.0466 97.4888 20.5399C97.3288 21.0332 97.2488 21.6066 97.2488 22.2599C97.2488 22.9132 97.3288 23.4866 97.4888 23.9799C97.6488 24.4732 97.9088 24.8566 98.2688 25.1299C98.6354 25.4032 99.1221 25.5399 99.7288 25.5399ZM111.369 27.9799C110.523 27.9799 109.833 27.8366 109.299 27.5499C108.766 27.2632 108.349 26.8999 108.049 26.4599C107.756 26.0199 107.546 25.5632 107.419 25.0899C107.293 24.6099 107.216 24.1732 107.189 23.7799C107.163 23.3866 107.149 23.0999 107.149 22.9199V16.8599H109.909V21.9599C109.909 22.2066 109.923 22.5232 109.949 22.9099C109.976 23.2899 110.059 23.6732 110.199 24.0599C110.339 24.4466 110.566 24.7699 110.879 25.0299C111.199 25.2899 111.649 25.4199 112.229 25.4199C112.463 25.4199 112.713 25.3832 112.979 25.3099C113.246 25.2366 113.496 25.0966 113.729 24.8899C113.963 24.6766 114.153 24.3666 114.299 23.9599C114.453 23.5466 114.529 23.0066 114.529 22.3399L116.089 23.0799C116.089 23.9332 115.916 24.7332 115.569 25.4799C115.223 26.2266 114.699 26.8299 113.999 27.2899C113.306 27.7499 112.429 27.9799 111.369 27.9799ZM114.869 27.6599V24.0799H114.529V16.8599H117.269V27.6599H114.869ZM120.264 27.6599V12.9599H122.984V27.6599H120.264ZM128.982 27.9599C128.209 27.9599 127.552 27.8132 127.012 27.5199C126.479 27.2199 126.072 26.8232 125.792 26.3299C125.519 25.8299 125.382 25.2799 125.382 24.6799C125.382 24.1799 125.459 23.7232 125.612 23.3099C125.765 22.8966 126.012 22.5332 126.352 22.2199C126.699 21.8999 127.162 21.6332 127.742 21.4199C128.142 21.2732 128.619 21.1432 129.172 21.0299C129.725 20.9166 130.352 20.8099 131.052 20.7099C131.752 20.6032 132.522 20.4866 133.362 20.3599L132.382 20.8999C132.382 20.2599 132.229 19.7899 131.922 19.4899C131.615 19.1899 131.102 19.0399 130.382 19.0399C129.982 19.0399 129.565 19.1366 129.132 19.3299C128.699 19.5232 128.395 19.8666 128.222 20.3599L125.762 19.5799C126.035 18.6866 126.549 17.9599 127.302 17.3999C128.055 16.8399 129.082 16.5599 130.382 16.5599C131.335 16.5599 132.182 16.7066 132.922 16.9999C133.662 17.2932 134.222 17.7999 134.602 18.5199C134.815 18.9199 134.942 19.3199 134.982 19.7199C135.022 20.1199 135.042 20.5666 135.042 21.0599V27.6599H132.662V25.4399L133.002 25.8999C132.475 26.6266 131.905 27.1532 131.292 27.4799C130.685 27.7999 129.915 27.9599 128.982 27.9599ZM129.562 25.8199C130.062 25.8199 130.482 25.7332 130.822 25.5599C131.169 25.3799 131.442 25.1766 131.642 24.9499C131.849 24.7232 131.989 24.5332 132.062 24.3799C132.202 24.0866 132.282 23.7466 132.302 23.3599C132.329 22.9666 132.342 22.6399 132.342 22.3799L133.142 22.5799C132.335 22.7132 131.682 22.8266 131.182 22.9199C130.682 23.0066 130.279 23.0866 129.972 23.1599C129.665 23.2332 129.395 23.3132 129.162 23.3999C128.895 23.5066 128.679 23.6232 128.512 23.7499C128.352 23.8699 128.232 24.0032 128.152 24.1499C128.079 24.2966 128.042 24.4599 128.042 24.6399C128.042 24.8866 128.102 25.0999 128.222 25.2799C128.349 25.4532 128.525 25.5866 128.752 25.6799C128.979 25.7732 129.249 25.8199 129.562 25.8199ZM137.642 27.6599V16.8599H140.042V19.4999L139.782 19.1599C139.922 18.7866 140.109 18.4466 140.342 18.1399C140.576 17.8332 140.862 17.5799 141.202 17.3799C141.462 17.2199 141.746 17.0966 142.052 17.0099C142.359 16.9166 142.676 16.8599 143.002 16.8399C143.329 16.8132 143.656 16.8199 143.982 16.8599V19.3999C143.682 19.3066 143.332 19.2766 142.932 19.3099C142.539 19.3366 142.182 19.4266 141.862 19.5799C141.542 19.7266 141.272 19.9232 141.052 20.1699C140.832 20.4099 140.666 20.6966 140.552 21.0299C140.439 21.3566 140.382 21.7266 140.382 22.1399V27.6599H137.642ZM149.888 27.6599V13.2599H152.648L158.908 22.8599V13.2599H161.668V27.6599H158.908L152.648 18.0599V27.6599H149.888ZM169.479 27.9599C168.372 27.9599 167.395 27.7232 166.549 27.2499C165.709 26.7699 165.049 26.1132 164.569 25.2799C164.095 24.4399 163.859 23.4799 163.859 22.3999C163.859 21.2199 164.092 20.1932 164.559 19.3199C165.025 18.4466 165.669 17.7699 166.489 17.2899C167.309 16.8032 168.252 16.5599 169.319 16.5599C170.452 16.5599 171.415 16.8266 172.209 17.3599C173.002 17.8932 173.589 18.6432 173.969 19.6099C174.349 20.5766 174.482 21.7132 174.369 23.0199H171.679V22.0199C171.679 20.9199 171.502 20.1299 171.149 19.6499C170.802 19.1632 170.232 18.9199 169.439 18.9199C168.512 18.9199 167.829 19.2032 167.389 19.7699C166.955 20.3299 166.739 21.1599 166.739 22.2599C166.739 23.2666 166.955 24.0466 167.389 24.5999C167.829 25.1466 168.472 25.4199 169.319 25.4199C169.852 25.4199 170.309 25.3032 170.689 25.0699C171.069 24.8366 171.359 24.4999 171.559 24.0599L174.279 24.8399C173.872 25.8266 173.229 26.5932 172.349 27.1399C171.475 27.6866 170.519 27.9599 169.479 27.9599ZM165.899 23.0199V20.9999H173.059V23.0199H165.899ZM178.536 27.6599L175.236 16.8399L177.896 16.8599L179.856 23.2999L181.846 16.8599H184.106L186.096 23.2999L188.056 16.8599H190.716L187.416 27.6599H185.336L182.976 20.6199L180.616 27.6599H178.536ZM196.354 27.9599C194.994 27.9599 193.894 27.6532 193.054 27.0399C192.221 26.4199 191.714 25.5466 191.534 24.4199L194.314 23.9999C194.428 24.5066 194.678 24.9032 195.064 25.1899C195.458 25.4766 195.954 25.6199 196.554 25.6199C197.048 25.6199 197.428 25.5266 197.694 25.3399C197.961 25.1466 198.094 24.8799 198.094 24.5399C198.094 24.3266 198.041 24.1566 197.934 24.0299C197.828 23.8966 197.588 23.7666 197.214 23.6399C196.848 23.5132 196.274 23.3466 195.494 23.1399C194.614 22.9132 193.911 22.6599 193.384 22.3799C192.858 22.0999 192.478 21.7666 192.244 21.3799C192.011 20.9866 191.894 20.5132 191.894 19.9599C191.894 19.2666 192.071 18.6666 192.424 18.1599C192.778 17.6466 193.274 17.2532 193.914 16.9799C194.561 16.6999 195.321 16.5599 196.194 16.5599C197.041 16.5599 197.791 16.6899 198.444 16.9499C199.098 17.2099 199.624 17.5799 200.024 18.0599C200.431 18.5399 200.681 19.1066 200.774 19.7599L197.994 20.2599C197.948 19.8599 197.774 19.5432 197.474 19.3099C197.174 19.0766 196.768 18.9399 196.254 18.8999C195.754 18.8666 195.351 18.9332 195.044 19.0999C194.744 19.2666 194.594 19.5066 194.594 19.8199C194.594 20.0066 194.658 20.1632 194.784 20.2899C194.918 20.4166 195.188 20.5466 195.594 20.6799C196.008 20.8132 196.634 20.9866 197.474 21.1999C198.294 21.4132 198.951 21.6632 199.444 21.9499C199.944 22.2299 200.308 22.5699 200.534 22.9699C200.761 23.3632 200.874 23.8399 200.874 24.3999C200.874 25.5066 200.474 26.3766 199.674 27.0099C198.874 27.6432 197.768 27.9599 196.354 27.9599Z" fill="white"/>
</svg>
