<svg width="17" height="16" viewBox="0 0 17 16" fill="none" xmlns="http://www.w3.org/2000/svg">
<path d="M14.1353 1.22667H12.6953V0.48C12.6953 0.337777 12.6509 0.222221 12.562 0.133333C12.4731 0.0444441 12.3576 0 12.2153 0C12.0731 0 11.9576 0.0444441 11.8687 0.133333C11.7798 0.222221 11.7353 0.337777 11.7353 0.48V1.22667H4.69533V0.48C4.69533 0.337777 4.65089 0.222221 4.562 0.133333C4.47311 0.0444441 4.35755 0 4.21533 0C4.07311 0 3.95755 0.0444441 3.86867 0.133333C3.77978 0.222221 3.73533 0.337777 3.73533 0.48V1.22667H2.29533C1.72644 1.22667 1.23755 1.43111 0.828665 1.84C0.419776 2.24889 0.215332 2.73778 0.215332 3.30667V13.92C0.215332 14.4889 0.419776 14.9778 0.828665 15.3867C1.23755 15.7956 1.72644 16 2.29533 16H14.1353C14.7042 16 15.1931 15.7956 15.602 15.3867C16.0109 14.9778 16.2153 14.4889 16.2153 13.92V3.30667C16.2153 2.73778 16.0109 2.24889 15.602 1.84C15.1931 1.43111 14.7042 1.22667 14.1353 1.22667ZM2.29533 2.24H3.73533V2.77333C3.73533 2.88 3.77978 2.98667 3.86867 3.09333C3.95755 3.2 4.07311 3.25333 4.21533 3.25333C4.35755 3.25333 4.47311 3.2 4.562 3.09333C4.65089 2.98667 4.69533 2.88 4.69533 2.77333V2.24H11.7353V2.77333C11.7353 2.88 11.7798 2.98667 11.8687 3.09333C11.9576 3.2 12.0731 3.25333 12.2153 3.25333C12.3576 3.25333 12.4731 3.2 12.562 3.09333C12.6509 2.98667 12.6953 2.88 12.6953 2.77333V2.24H14.1353C14.4553 2.24 14.7131 2.34667 14.9087 2.56C15.1042 2.77333 15.202 3.02222 15.202 3.30667V4.48H1.22867V3.30667C1.22867 3.02222 1.32644 2.77333 1.522 2.56C1.71755 2.34667 1.97533 2.24 2.29533 2.24ZM14.1353 14.9867H2.29533C1.97533 14.9867 1.71755 14.8889 1.522 14.6933C1.32644 14.4978 1.22867 14.24 1.22867 13.92V5.49333H15.202V13.92C15.202 14.24 15.1042 14.4978 14.9087 14.6933C14.7131 14.8889 14.4553 14.9867 14.1353 14.9867Z" fill="#BACCE1"/>
</svg>
