<svg width="35" height="33" viewBox="0 0 35 33" fill="none" xmlns="http://www.w3.org/2000/svg">
<g clip-path="url(#clip0_4_958)">
<path d="M12.1899 24.64C11.8166 24.64 11.4966 24.5333 11.2299 24.32L8.50994 22C6.96327 20.6667 5.84327 19.68 5.14994 19.04C4.08327 18.0267 3.22994 17.1467 2.58994 16.4C0.989941 14.48 0.189941 12.5333 0.189941 10.56C0.189941 9.54668 0.349941 8.60002 0.669941 7.72001C0.989941 6.84002 1.45661 6.06668 2.06994 5.40001C2.68327 4.73335 3.40327 4.21335 4.22994 3.84002C5.05661 3.46668 5.94994 3.28002 6.90994 3.28002C8.29661 3.28002 9.54994 3.73335 10.6699 4.64001C11.2566 5.06668 11.7633 5.60002 12.1899 6.24002C12.6166 5.60002 13.1233 5.06668 13.7099 4.64001C14.8299 3.73335 16.0833 3.28002 17.4699 3.28002C18.4299 3.28002 19.3233 3.46668 20.1499 3.84002C20.9766 4.21335 21.6966 4.73335 22.3099 5.40001C22.9233 6.06668 23.3899 6.84002 23.7099 7.72001C24.0299 8.60002 24.1899 9.54668 24.1899 10.56C24.1899 12.5333 23.3899 14.48 21.7899 16.4C21.1499 17.1467 20.2966 18.0267 19.2299 19.04C18.5366 19.68 17.4166 20.6667 15.8699 22L13.1499 24.32C12.8833 24.5333 12.5633 24.64 12.1899 24.64ZM6.90994 4.72001C6.16327 4.72001 5.46994 4.86668 4.82994 5.16002C4.18994 5.45335 3.62994 5.84002 3.14994 6.32001C2.13661 7.44002 1.62994 8.85335 1.62994 10.56C1.62994 11.4133 1.78994 12.2267 2.10994 13C2.42994 13.7733 2.93661 14.5867 3.62994 15.44C4.26994 16.1867 5.12327 17.0667 6.18994 18.08C6.82994 18.6667 7.92327 19.6 9.46994 20.88L12.1899 23.28L14.9099 20.88C16.4566 19.6 17.5499 18.6667 18.1899 18.08C19.2566 17.0667 20.1099 16.1867 20.7499 15.44C21.4433 14.5867 21.9499 13.7733 22.2699 13C22.5899 12.2267 22.7499 11.4133 22.7499 10.56C22.7499 8.85335 22.2433 7.44002 21.2299 6.32001C20.7499 5.84002 20.1899 5.45335 19.5499 5.16002C18.9099 4.86668 18.2166 4.72001 17.4699 4.72001C16.4033 4.72001 15.4433 5.06668 14.5899 5.76002C13.9499 6.24002 13.4166 6.85335 12.9899 7.60002C12.7766 7.86668 12.5099 8.00002 12.1899 8.00002C11.8699 8.00002 11.6033 7.86668 11.3899 7.60002C10.9633 6.85335 10.4299 6.24002 9.78994 5.76002C8.93661 5.06668 7.97661 4.72001 6.90994 4.72001Z" fill="#90A8C5"/>
</g>
<rect x="16.1899" width="18" height="18" rx="9" fill="#F4796C"/>
<path d="M25.188 13.1523C24.5448 13.1523 23.9927 12.9896 23.5317 12.6641C23.0734 12.3359 22.7205 11.8633 22.4731 11.2461C22.2284 10.6263 22.106 9.88021 22.106 9.00781C22.1086 8.13542 22.2323 7.39323 22.4771 6.78125C22.7244 6.16667 23.0773 5.69792 23.5356 5.375C23.9966 5.05208 24.5474 4.89062 25.188 4.89062C25.8286 4.89062 26.3794 5.05208 26.8403 5.375C27.3013 5.69792 27.6541 6.16667 27.8989 6.78125C28.1463 7.39583 28.27 8.13802 28.27 9.00781C28.27 9.88281 28.1463 10.6302 27.8989 11.25C27.6541 11.8672 27.3013 12.3385 26.8403 12.6641C26.382 12.9896 25.8312 13.1523 25.188 13.1523ZM25.188 11.9297C25.688 11.9297 26.0825 11.6836 26.3716 11.1914C26.6632 10.6966 26.8091 9.96875 26.8091 9.00781C26.8091 8.3724 26.7427 7.83854 26.6099 7.40625C26.4771 6.97396 26.2896 6.64844 26.0474 6.42969C25.8052 6.20833 25.5187 6.09766 25.188 6.09766C24.6906 6.09766 24.2974 6.34505 24.0083 6.83984C23.7192 7.33203 23.5734 8.05469 23.5708 9.00781C23.5682 9.64583 23.632 10.1823 23.7622 10.6172C23.895 11.0521 24.0825 11.3802 24.3247 11.6016C24.5669 11.8203 24.8547 11.9297 25.188 11.9297Z" fill="white"/>
<a href="https://www.figma.com/design/GbVhwgDrxqkzjCJgiIpkUW/75---News-Magizine--WebsiteTemplates--Community-?node-id=4-913">
<rect fill="black" fill-opacity="0" y="0.34375" width="7.33594" height="13.3125"/>
</a>
<defs>
<clipPath id="clip0_4_958">
<rect width="24" height="24" fill="white" transform="matrix(1 0 0 -1 0.189941 26)"/>
</clipPath>
</defs>
</svg>
