<svg width="17" height="16" viewBox="0 0 17 16" fill="none" xmlns="http://www.w3.org/2000/svg">
<path d="M14.1685 2.34667C13.4218 1.6 12.5596 1.02222 11.5818 0.613333C10.604 0.204444 9.5818 0 8.51514 0C7.44847 0 6.42625 0.204444 5.44847 0.613333C4.47069 1.02222 3.60847 1.6 2.8618 2.34667C2.11514 3.09333 1.53736 3.95555 1.12847 4.93333C0.719581 5.91111 0.515137 6.93333 0.515137 8C0.515137 9.06667 0.719581 10.0889 1.12847 11.0667C1.53736 12.0444 2.11514 12.9067 2.8618 13.6533C3.60847 14.4 4.47069 14.9778 5.44847 15.3867C6.42625 15.7956 7.44847 16 8.51514 16C9.5818 16 10.604 15.7956 11.5818 15.3867C12.5596 14.9778 13.4218 14.4 14.1685 13.6533C14.9151 12.9067 15.4929 12.0444 15.9018 11.0667C16.3107 10.0889 16.5151 9.06667 16.5151 8C16.5151 6.93333 16.3107 5.91111 15.9018 4.93333C15.4929 3.95555 14.9151 3.09333 14.1685 2.34667ZM3.9818 13.44C4.08847 12.6933 4.35514 12.0089 4.7818 11.3867C5.20847 10.7644 5.75069 10.2756 6.40847 9.92C7.06625 9.56444 7.76847 9.38667 8.51514 9.38667C9.11958 9.38667 9.69736 9.50222 10.2485 9.73333C10.7996 9.96444 11.2885 10.2933 11.7151 10.72C12.4618 11.4667 12.9062 12.3733 13.0485 13.44C12.4085 13.9378 11.7062 14.3289 10.9418 14.6133C10.1774 14.8978 9.36847 15.04 8.51514 15.04C7.6618 15.04 6.85291 14.8978 6.08847 14.6133C5.32403 14.3289 4.6218 13.9378 3.9818 13.44ZM8.51514 8.42667C7.83958 8.42667 7.2618 8.18667 6.7818 7.70667C6.3018 7.22667 6.0618 6.65778 6.0618 6C6.0618 5.34222 6.3018 4.77333 6.7818 4.29333C7.2618 3.81333 7.83958 3.57333 8.51514 3.57333C9.19069 3.57333 9.76847 3.81333 10.2485 4.29333C10.7285 4.77333 10.9685 5.34222 10.9685 6C10.9685 6.65778 10.7285 7.22667 10.2485 7.70667C9.76847 8.18667 9.19069 8.42667 8.51514 8.42667ZM13.8485 12.64C13.5996 11.6444 13.1196 10.7911 12.4085 10.08C11.8396 9.47556 11.164 9.04889 10.3818 8.8C10.844 8.48 11.2085 8.07111 11.4751 7.57333C11.7418 7.07556 11.8751 6.53333 11.8751 5.94667C11.8751 5.36 11.724 4.80889 11.4218 4.29333C11.1196 3.77778 10.7107 3.36889 10.1951 3.06667C9.67958 2.76444 9.11958 2.61333 8.51514 2.61333C7.91069 2.61333 7.35069 2.76444 6.83514 3.06667C6.31958 3.36889 5.91069 3.77778 5.60847 4.29333C5.30625 4.80889 5.15514 5.36 5.15514 5.94667C5.15514 6.53333 5.28847 7.07556 5.55514 7.57333C5.8218 8.07111 6.18625 8.48 6.64847 8.8C5.93736 9.04889 5.31514 9.42222 4.7818 9.92C3.96403 10.6667 3.43069 11.5733 3.1818 12.64C2.64847 12 2.23069 11.28 1.92847 10.48C1.62625 9.68 1.47514 8.85333 1.47514 8C1.47514 6.72 1.78625 5.53778 2.40847 4.45333C3.03069 3.36889 3.88403 2.51556 4.96847 1.89333C6.05291 1.27111 7.23514 0.96 8.51514 0.96C9.79514 0.96 10.9774 1.27111 12.0618 1.89333C13.1462 2.51556 13.9996 3.36889 14.6218 4.45333C15.244 5.53778 15.5551 6.72 15.5551 8C15.5551 8.85333 15.404 9.68 15.1018 10.48C14.7996 11.28 14.3818 12 13.8485 12.64Z" fill="#BACCE1"/>
</svg>
